<svg width="45" height="44" viewBox="0 0 45 44" fill="none" xmlns="http://www.w3.org/2000/svg">
<g clip-path="url(#clip0_925_2887)">
<path d="M22.2669 3.92019C28.0834 3.92019 28.7722 3.9457 31.0597 4.04774C33.1856 4.14128 34.3336 4.49844 35.0989 4.79607C36.1108 5.18723 36.8422 5.66344 37.599 6.42027C38.3643 7.1856 38.832 7.90841 39.2232 8.92034C39.5208 9.68567 39.878 10.8422 39.9715 12.9596C40.0735 15.2556 40.0991 15.9444 40.0991 21.7524C40.0991 27.5689 40.0735 28.2577 39.9715 30.5452C39.878 32.6711 39.5208 33.8191 39.2232 34.5844C38.832 35.5963 38.3558 36.3277 37.599 37.0845C36.8337 37.8498 36.1108 38.3175 35.0989 38.7087C34.3336 39.0063 33.1771 39.3635 31.0597 39.457C28.7637 39.559 28.0749 39.5846 22.2669 39.5846C16.4504 39.5846 15.7616 39.559 13.4741 39.457C11.3482 39.3635 10.2002 39.0063 9.43485 38.7087C8.42291 38.3175 7.6916 37.8413 6.93477 37.0845C6.16944 36.3191 5.70174 35.5963 5.31057 34.5844C5.01294 33.8191 4.65579 32.6626 4.56225 30.5452C4.4602 28.2492 4.43469 27.5604 4.43469 21.7524C4.43469 15.9359 4.4602 15.2471 4.56225 12.9596C4.65579 10.8337 5.01294 9.68567 5.31057 8.92034C5.70174 7.90841 6.17794 7.17709 6.93477 6.42027C7.7001 5.65494 8.42291 5.18723 9.43485 4.79607C10.2002 4.49844 11.3567 4.14128 13.4741 4.04774C15.7616 3.9457 16.4504 3.92019 22.2669 3.92019ZM22.2669 0C16.3568 0 15.617 0.025511 13.2955 0.127555C10.9825 0.229599 9.39233 0.60376 8.01474 1.13949C6.57762 1.70073 5.36159 2.44055 4.15407 3.65658C2.93805 4.8641 2.19823 6.08012 1.63699 7.50874C1.10126 8.89483 0.727096 10.4765 0.625053 12.7895C0.523009 15.1195 0.497498 15.8593 0.497498 21.7694C0.497498 27.6794 0.523009 28.4192 0.625053 30.7407C0.727096 33.0537 1.10126 34.6439 1.63699 36.0215C2.19823 37.4586 2.93805 38.6747 4.15407 39.8822C5.36159 41.0897 6.57762 41.838 8.00623 42.3908C9.39233 42.9265 10.974 43.3007 13.287 43.4027C15.6085 43.5047 16.3483 43.5303 22.2584 43.5303C28.1684 43.5303 28.9082 43.5047 31.2297 43.4027C33.5427 43.3007 35.1329 42.9265 36.5105 42.3908C37.9391 41.838 39.1552 41.0897 40.3627 39.8822C41.5702 38.6747 42.3185 37.4586 42.8713 36.03C43.407 34.6439 43.7811 33.0622 43.8832 30.7492C43.9852 28.4277 44.0107 27.6879 44.0107 21.7779C44.0107 15.8678 43.9852 15.128 43.8832 12.8065C43.7811 10.4935 43.407 8.90334 42.8713 7.52574C42.3355 6.08012 41.5957 4.8641 40.3797 3.65658C39.1722 2.44905 37.9561 1.70073 36.5275 1.14799C35.1414 0.612264 33.5597 0.238103 31.2467 0.136059C28.9167 0.025511 28.1769 0 22.2669 0Z" fill="#000100"/>
<path d="M22.2669 10.5879C16.0932 10.5879 11.0845 15.5965 11.0845 21.7702C11.0845 27.9439 16.0932 32.9525 22.2669 32.9525C28.4405 32.9525 33.4492 27.9439 33.4492 21.7702C33.4492 15.5965 28.4405 10.5879 22.2669 10.5879ZM22.2669 29.0238C18.2616 29.0238 15.0132 25.7754 15.0132 21.7702C15.0132 17.765 18.2616 14.5166 22.2669 14.5166C26.2721 14.5166 29.5205 17.765 29.5205 21.7702C29.5205 25.7754 26.2721 29.0238 22.2669 29.0238Z" fill="#000100"/>
<path d="M36.502 10.1458C36.502 11.5914 35.3285 12.7564 33.8914 12.7564C32.4458 12.7564 31.2808 11.5829 31.2808 10.1458C31.2808 8.70016 32.4543 7.53516 33.8914 7.53516C35.3285 7.53516 36.502 8.70866 36.502 10.1458Z" fill="#000100"/>
</g>
<defs>
<clipPath id="clip0_925_2887">
<rect width="43.5388" height="43.5388" fill="white" transform="translate(0.497498)"/>
</clipPath>
</defs>
</svg>
