<svg width="44" height="44" viewBox="0 0 44 44" fill="none" xmlns="http://www.w3.org/2000/svg">
<g clip-path="url(#clip0_925_2886)">
<path d="M43.5388 21.7694C43.5388 9.74659 33.7922 0 21.7694 0C9.74659 0 0 9.74659 0 21.7694C0 31.9783 7.0289 40.545 16.5108 42.8979V28.4221H12.0219V21.7694H16.5108V18.9028C16.5108 11.4934 19.8641 8.05902 27.1386 8.05902C28.5179 8.05902 30.8977 8.32983 31.8712 8.59978V14.6299C31.3575 14.5759 30.4649 14.5489 29.3564 14.5489C25.7871 14.5489 24.4078 15.9012 24.4078 19.4165V21.7694H31.5186L30.2969 28.4221H24.4078V43.3794C35.1872 42.0776 43.5396 32.8996 43.5396 21.7694H43.5388Z" fill="#0866FF"/>
<path d="M30.296 28.4217L31.5177 21.7689H24.407V19.4161C24.407 15.9008 25.7863 14.5485 29.3556 14.5485C30.4641 14.5485 31.3566 14.5755 31.8704 14.6295V8.59935C30.8968 8.32853 28.517 8.05859 27.1377 8.05859C19.8633 8.05859 16.5099 11.4929 16.5099 18.9024V21.7689H12.0211V28.4217H16.5099V42.8974C18.194 43.3154 19.9556 43.5383 21.7685 43.5383C22.6611 43.5383 23.5414 43.4835 24.4061 43.379V28.4217H30.2951H30.296Z" fill="white"/>
</g>
<defs>
<clipPath id="clip0_925_2886">
<rect width="43.5388" height="43.5388" fill="white"/>
</clipPath>
</defs>
</svg>
