<svg width="44" height="44" viewBox="0 0 44 44" fill="none" xmlns="http://www.w3.org/2000/svg">
<g clip-path="url(#clip0_925_2892)">
<path d="M40.3247 0.078125H3.21401C2.3616 0.078125 1.5441 0.416743 0.941361 1.01949C0.338618 1.62223 0 2.43972 0 3.29213V40.4029C0 41.2553 0.338618 42.0728 0.941361 42.6755C1.5441 43.2783 2.3616 43.6169 3.21401 43.6169H40.3247C41.1772 43.6169 41.9947 43.2783 42.5974 42.6755C43.2001 42.0728 43.5388 41.2553 43.5388 40.4029V3.29213C43.5388 2.43972 43.2001 1.62223 42.5974 1.01949C41.9947 0.416743 41.1772 0.078125 40.3247 0.078125ZM12.977 37.1677H6.43104V16.3749H12.977V37.1677ZM9.69947 13.4935C8.95695 13.4893 8.2323 13.2653 7.61699 12.8497C7.00167 12.434 6.52327 11.8454 6.24215 11.1582C5.96103 10.4709 5.88979 9.71578 6.03743 8.98807C6.18507 8.26036 6.54497 7.59269 7.0717 7.06933C7.59844 6.54596 8.2684 6.19036 8.99704 6.0474C9.72568 5.90443 10.4803 5.98052 11.1658 6.26604C11.8512 6.55157 12.4367 7.03374 12.8484 7.65171C13.2601 8.26968 13.4795 8.99575 13.4789 9.73829C13.4859 10.2354 13.3927 10.7289 13.205 11.1892C13.0172 11.6496 12.7387 12.0674 12.386 12.4179C12.0333 12.7683 11.6137 13.0441 11.1521 13.2289C10.6906 13.4137 10.1965 13.5037 9.69947 13.4935ZM37.1047 37.1858H30.5618V25.8265C30.5618 22.4764 29.1377 21.4424 27.2994 21.4424C25.3583 21.4424 23.4535 22.9057 23.4535 25.9111V37.1858H16.9076V16.39H23.2025V19.2715H23.2872C23.9191 17.9925 26.1323 15.8065 29.5096 15.8065C33.162 15.8065 37.1077 17.9744 37.1077 24.3238L37.1047 37.1858Z" fill="#0A66C2"/>
</g>
<defs>
<clipPath id="clip0_925_2892">
<rect width="43.5388" height="43.5388" fill="white" transform="translate(0 0.078125)"/>
</clipPath>
</defs>
</svg>
