<svg width="44" height="45" viewBox="0 0 44 45" fill="none" xmlns="http://www.w3.org/2000/svg">
<path d="M21.7694 0.617188C9.50778 0.617188 0 9.6025 0 21.7335C0 28.0793 2.60144 33.5651 6.83559 37.353C7.18934 37.6687 7.40703 38.1149 7.41792 38.5939L7.53765 42.4688C7.54637 42.7539 7.62498 43.0325 7.76659 43.2802C7.90819 43.5278 8.10845 43.7368 8.34977 43.8889C8.59108 44.041 8.86606 44.1315 9.15053 44.1524C9.43501 44.1734 9.72028 44.1241 9.98126 44.009L14.3025 42.1042C14.6671 41.9409 15.0807 41.9137 15.4671 42.0171C17.4536 42.5613 19.5652 42.8552 21.7694 42.8552C34.031 42.8552 43.5388 33.8699 43.5388 21.7389C43.5388 9.60794 34.031 0.617188 21.7694 0.617188Z" fill="url(#paint0_radial_925_2895)"/>
<path d="M8.6969 27.9104L15.0917 17.7658C15.3322 17.3839 15.6494 17.056 16.023 16.8028C16.3967 16.5496 16.8188 16.3766 17.2627 16.2948C17.7066 16.213 18.1627 16.2241 18.6021 16.3274C19.0415 16.4307 19.4547 16.624 19.8156 16.8951L24.9042 20.7101C25.1314 20.8802 25.4078 20.9717 25.6915 20.9707C25.9753 20.9697 26.2511 20.8763 26.477 20.7047L33.3453 15.4909C34.2596 14.7943 35.4569 15.8937 34.8474 16.8678L28.4472 27.0069C28.2066 27.3889 27.8895 27.7168 27.5158 27.97C27.1421 28.2232 26.72 28.3961 26.2761 28.478C25.8322 28.5598 25.3761 28.5487 24.9367 28.4454C24.4974 28.3421 24.0841 28.1488 23.7232 27.8777L18.6346 24.0626C18.4075 23.8926 18.1311 23.8011 17.8473 23.8021C17.5635 23.8031 17.2878 23.8964 17.0618 24.0681L10.1935 29.2818C9.27923 29.9785 8.08192 28.8845 8.6969 27.9104Z" fill="white"/>
<defs>
<radialGradient id="paint0_radial_925_2895" cx="0" cy="0" r="1" gradientUnits="userSpaceOnUse" gradientTransform="translate(7.29274 44.1559) scale(47.8926)">
<stop stop-color="#0099FF"/>
<stop offset="0.6" stop-color="#A033FF"/>
<stop offset="0.9" stop-color="#FF5280"/>
<stop offset="1" stop-color="#FF7061"/>
</radialGradient>
</defs>
</svg>
