<svg width="45" height="44" viewBox="0 0 45 44" fill="none" xmlns="http://www.w3.org/2000/svg">
<path d="M40.9472 32.1517C34.2049 28.8869 33.1303 23.8463 33.0825 23.4724C33.0247 23.0195 32.959 22.6634 33.4585 22.2028C33.9402 21.7577 36.0771 20.4346 36.67 20.0207C37.65 19.3352 38.0816 18.6509 37.7635 17.8097C37.541 17.2277 36.9993 17.0085 36.4286 17.0085C36.2486 17.0091 36.0692 17.0292 35.8935 17.0686C34.8167 17.3023 33.7711 17.842 33.1659 17.9877C33.0932 18.0065 33.0185 18.0166 32.9435 18.0178C32.6209 18.0178 32.4985 17.8742 32.5296 17.4859C32.6053 16.3086 32.7655 14.0108 32.5797 11.8644C32.325 8.91116 31.3727 7.44792 30.2437 6.15381C29.6975 5.52623 27.1612 2.83008 22.2666 2.83008C17.3721 2.83008 14.8391 5.52623 14.2963 6.14602C13.1639 7.44013 12.2128 8.90338 11.9602 11.8566C11.7745 14.003 11.9413 16.2997 12.0103 17.4781C12.0326 17.8475 11.9191 18.01 11.5965 18.01C11.5214 18.0087 11.4467 17.9986 11.374 17.9799C10.77 17.8342 9.72432 17.2945 8.64752 17.0608C8.47187 17.0214 8.29246 17.0013 8.11246 17.0007C7.53957 17.0007 7.00005 17.2233 6.77757 17.8019C6.45943 18.6431 6.88881 19.3275 7.87218 20.0129C8.46509 20.4268 10.602 21.7488 11.0837 22.195C11.582 22.6556 11.5175 23.0117 11.4597 23.4646C11.4118 23.844 10.3361 28.8847 3.595 32.1439C3.20009 32.3353 2.5282 32.7403 3.71291 33.3946C5.57284 34.4228 6.81095 34.3126 7.77317 34.9324C8.58967 35.4587 8.10689 36.5937 8.70092 37.0032C9.43065 37.5073 11.5876 36.9676 14.3742 37.8878C16.7102 38.6579 18.1296 40.8333 22.2722 40.8333C26.4148 40.8333 27.8754 38.6478 30.1702 37.8878C32.9512 36.9676 35.1126 37.5073 35.8435 37.0032C36.4364 36.5937 35.9547 35.4587 36.7712 34.9324C37.7335 34.3126 38.9704 34.4228 40.8315 33.3946C42.014 32.7481 41.3421 32.3431 40.9472 32.1517Z" fill="white"/>
<path d="M43.8806 31.7669C43.578 30.9435 43.0018 30.5029 42.3455 30.1379C42.222 30.0656 42.1085 30.0077 42.0118 29.9632C41.816 29.8619 41.6157 29.764 41.4166 29.6605C39.3709 28.5756 37.7735 27.2069 36.6656 25.5846C36.3509 25.1279 36.078 24.6437 35.8502 24.138C35.7556 23.8676 35.7601 23.7141 35.8279 23.5739C35.8952 23.4659 35.9843 23.373 36.0893 23.3013C36.4409 23.0687 36.8035 22.8328 37.0493 22.6737C37.4876 22.3899 37.8347 22.1652 38.0583 22.006C38.8982 21.4185 39.4855 20.7943 39.8526 20.0966C40.1087 19.6146 40.2581 19.083 40.2905 18.5381C40.323 17.9932 40.2377 17.4477 40.0406 16.9386C39.4844 15.4743 38.1017 14.5652 36.4264 14.5652C36.073 14.5649 35.7206 14.6022 35.3752 14.6765C35.2829 14.6965 35.1905 14.7176 35.1004 14.741C35.116 13.7395 35.0937 12.6824 35.0048 11.642C34.6888 7.98448 33.4085 6.06724 32.0736 4.53835C31.2188 3.58028 30.2119 2.76973 29.0935 2.1393C27.0678 0.982054 24.7707 0.394531 22.2667 0.394531C19.7626 0.394531 17.4767 0.982054 15.4488 2.1393C14.3276 2.76992 13.3187 3.58209 12.4631 4.5428C11.1282 6.07169 9.84782 7.99227 9.5319 11.6465C9.4429 12.6869 9.42065 13.7496 9.43512 14.7455C9.34501 14.7221 9.2538 14.7009 9.16147 14.6809C8.816 14.6066 8.46361 14.5693 8.11025 14.5696C6.43386 14.5696 5.04892 15.4787 4.49495 16.9431C4.29693 17.4523 4.21084 17.9982 4.24251 18.5437C4.27418 19.0892 4.42287 19.6215 4.67849 20.1044C5.0467 20.8021 5.63404 21.4263 6.47391 22.0138C6.69639 22.1696 7.04457 22.3944 7.48285 22.6815C7.71979 22.835 8.06575 23.0598 8.40503 23.2846C8.52374 23.3613 8.62463 23.4626 8.70093 23.5817C8.77213 23.7274 8.77435 23.8843 8.66867 24.1736C8.4439 24.6687 8.17549 25.1427 7.86663 25.5901C6.78315 27.1758 5.23247 28.52 3.25239 29.596C2.2034 30.1524 1.11325 30.524 0.652714 31.7758C0.305646 32.7205 0.532575 33.7954 1.41471 34.7012C1.73846 35.0393 2.11396 35.3236 2.52711 35.5435C3.38676 36.0161 4.30087 36.3819 5.24915 36.6329C5.44484 36.6834 5.63062 36.7665 5.79868 36.8788C6.12016 37.1603 6.07455 37.5843 6.50283 38.2052C6.71781 38.5261 6.99098 38.8039 7.30821 39.0242C8.20703 39.6451 9.21709 39.684 10.2872 39.7252C11.2539 39.7619 12.3496 39.8042 13.6011 40.217C14.1194 40.3884 14.6578 40.72 15.2819 41.1072C16.7803 42.0286 18.8316 43.2893 22.2644 43.2893C25.6973 43.2893 27.763 42.0219 29.2726 41.0972C29.8922 40.7166 30.4272 40.3884 30.9311 40.2215C32.1826 39.8075 33.2783 39.7664 34.245 39.7296C35.3151 39.6885 36.3252 39.6495 37.224 39.0286C37.5997 38.7666 37.9127 38.4246 38.1406 38.0272C38.4487 37.5031 38.441 37.137 38.7302 36.881C38.8878 36.7741 39.0623 36.6944 39.2463 36.6451C40.2076 36.3934 41.1341 36.0242 42.0051 35.5458C42.444 35.3102 42.8392 35.0008 43.1731 34.6311L43.1842 34.6178C44.0119 33.732 44.2199 32.6883 43.8806 31.7669ZM40.8293 33.4071C38.9682 34.4353 37.7312 34.3251 36.769 34.9449C35.9514 35.4712 36.4353 36.6062 35.8413 37.0157C35.1115 37.5198 32.9546 36.9801 30.168 37.9003C27.8698 38.6603 26.4037 40.8457 22.27 40.8457C18.1363 40.8457 16.7047 38.6648 14.3686 37.8947C11.5876 36.9745 9.42622 37.5142 8.69537 37.0101C8.10246 36.6006 8.58413 35.4656 7.76763 34.9393C6.80429 34.3195 5.5673 34.4297 3.70737 33.4071C2.52266 32.7528 3.19455 32.3478 3.58945 32.1564C10.3306 28.8916 11.4063 23.8509 11.4541 23.4771C11.512 23.0242 11.5765 22.6681 11.0781 22.2074C10.5965 21.7623 8.45954 20.4393 7.86663 20.0254C6.88549 19.3399 6.45388 18.6556 6.77203 17.8144C6.99451 17.2324 7.53736 17.0132 8.10691 17.0132C8.28692 17.0138 8.46633 17.0339 8.64197 17.0733C9.71878 17.307 10.7644 17.8466 11.3685 17.9924C11.4412 18.0111 11.5159 18.0212 11.5909 18.0224C11.9135 18.0224 12.027 17.86 12.0048 17.4906C11.9358 16.3122 11.7689 14.0155 11.9547 11.869C12.2094 8.91584 13.1605 7.4526 14.2907 6.15849C14.8336 5.53647 17.3843 2.84032 22.2622 2.84032C27.1401 2.84032 29.6975 5.52534 30.2403 6.14514C31.3717 7.43924 32.3239 8.90249 32.5764 11.8557C32.7622 14.0021 32.602 16.2999 32.5263 17.4772C32.5007 17.8656 32.6175 18.0091 32.9401 18.0091C33.0152 18.0079 33.0899 17.9978 33.1626 17.9791C33.7678 17.8333 34.8134 17.2936 35.8902 17.0599C36.0659 17.0205 36.2453 17.0004 36.4253 16.9998C36.9982 16.9998 37.5377 17.2224 37.7602 17.801C38.0783 18.6422 37.6489 19.3266 36.6667 20.012C36.0738 20.426 33.9368 21.7479 33.4552 22.1941C32.9557 22.6548 33.0213 23.0108 33.0792 23.4637C33.127 23.8432 34.2016 28.8838 40.9439 32.143C41.3421 32.3422 42.014 32.7472 40.8293 33.4071Z" fill="black"/>
</svg>
