<svg width="45" height="45" viewBox="0 0 45 45" fill="none" xmlns="http://www.w3.org/2000/svg">
<g clip-path="url(#clip0_925_2890)">
<path d="M32.593 20.7184C32.4055 20.6285 32.215 20.542 32.0221 20.4592C31.686 14.267 28.3024 10.7219 22.6211 10.6856C22.5953 10.6855 22.5697 10.6855 22.544 10.6855C19.1458 10.6855 16.3196 12.136 14.58 14.7755L17.7046 16.9189C19.0041 14.9473 21.0435 14.527 22.5455 14.527C22.5628 14.527 22.5802 14.527 22.5974 14.5271C24.4681 14.5391 25.8797 15.083 26.7933 16.1436C27.4582 16.9158 27.9029 17.9829 28.1231 19.3296C26.4645 19.0477 24.6708 18.9611 22.7533 19.071C17.3517 19.3821 13.8791 22.5325 14.1123 26.9099C14.2307 29.1304 15.3369 31.0407 17.227 32.2886C18.8251 33.3435 20.8834 33.8594 23.0225 33.7426C25.8475 33.5877 28.0637 32.5099 29.6097 30.5391C30.7839 29.0424 31.5266 27.1029 31.8545 24.6591C33.2008 25.4716 34.1985 26.5408 34.7496 27.8261C35.6866 30.0109 35.7412 33.6013 32.8116 36.5284C30.2449 39.0926 27.1595 40.202 22.4967 40.2362C17.3244 40.1979 13.4126 38.5391 10.8693 35.3059C8.48765 32.2784 7.25682 27.9054 7.2109 22.3084C7.25682 16.7114 8.48765 12.3384 10.8693 9.31092C13.4126 6.07776 17.3243 4.419 22.4966 4.38056C27.7065 4.4193 31.6864 6.08604 34.3271 9.3348C35.6219 10.928 36.5982 12.9315 37.2417 15.2675L40.9033 14.2906C40.1232 11.4152 38.8957 8.93744 37.2254 6.88257C33.84 2.71752 28.8888 0.583315 22.5094 0.539062H22.4839C16.1174 0.583161 11.2217 2.72548 7.93272 6.90645C5.006 10.627 3.49632 15.8039 3.44559 22.2931L3.44543 22.3084L3.44559 22.3237C3.49632 28.813 5.006 33.99 7.93272 37.7105C11.2217 41.8914 16.1174 44.0338 22.4839 44.0778H22.5094C28.1696 44.0386 32.1592 42.5567 35.446 39.2729C39.7461 34.9769 39.6166 29.5919 38.1993 26.2861C37.1825 23.9155 35.2439 21.9901 32.593 20.7184ZM22.8203 29.9066C20.4529 30.04 17.9934 28.9774 17.8721 26.7013C17.7822 25.0137 19.0731 23.1307 22.9656 22.9064C23.4114 22.8807 23.8488 22.8681 24.2785 22.8681C25.6924 22.8681 27.0151 23.0054 28.2176 23.2683C27.7691 28.8699 25.1382 29.7794 22.8203 29.9066Z" fill="black"/>
</g>
<defs>
<clipPath id="clip0_925_2890">
<rect width="43.5388" height="43.5388" fill="white" transform="translate(0.497498 0.539062)"/>
</clipPath>
</defs>
</svg>
