<svg width="44" height="44" viewBox="0 0 44 44" fill="none" xmlns="http://www.w3.org/2000/svg">
<path d="M31.1552 15.7172C33.955 17.7258 37.3849 18.9076 41.0894 18.9076V11.7536C40.3883 11.7538 39.689 11.6804 39.0031 11.5346V17.1657C35.299 17.1657 31.8695 15.984 29.0689 13.9756V28.5746C29.0689 35.8778 23.1696 41.7978 15.8928 41.7978C13.1777 41.7978 10.654 40.974 8.55768 39.5612C10.9503 42.0164 14.2871 43.5394 17.9786 43.5394C25.2558 43.5394 31.1555 37.6194 31.1555 30.316V15.7172H31.1552ZM33.7288 8.49982C32.2979 6.93104 31.3585 4.90367 31.1552 2.66233V1.74219H29.1782C29.6758 4.59093 31.3732 7.02472 33.7288 8.49982ZM13.1602 33.957C12.3608 32.905 11.9288 31.6182 11.9307 30.295C11.9307 26.9549 14.6291 24.2466 17.9581 24.2466C18.5785 24.2464 19.1952 24.3418 19.7864 24.53V17.2162C19.0955 17.1212 18.3981 17.0809 17.7011 17.0957V22.7884C17.1094 22.6001 16.4924 22.5045 15.8718 22.5051C12.5428 22.5051 9.84464 25.213 9.84464 28.5537C9.84464 30.9158 11.1934 32.9608 13.1602 33.957Z" fill="#FF004F"/>
<path d="M29.0689 13.9754C31.8694 15.9838 35.2989 17.1656 39.003 17.1656V11.5344C36.9354 11.0925 35.105 10.0081 33.7287 8.49983C31.373 7.02458 29.6757 4.59078 29.1781 1.74219H23.985V30.3157C23.9733 33.6468 21.2796 36.344 17.9577 36.344C16.0002 36.344 14.2611 35.4075 13.1597 33.957C11.193 32.9608 9.84427 30.9156 9.84427 28.5538C9.84427 25.2135 12.5424 22.5052 15.8714 22.5052C16.5093 22.5052 17.124 22.6049 17.7007 22.7885V17.0958C10.5517 17.244 4.80225 23.1062 4.80225 30.3158C4.80225 33.9148 6.234 37.1775 8.55776 39.5613C10.6541 40.974 13.1777 41.7979 15.8929 41.7979C23.1698 41.7979 29.069 35.8776 29.069 28.5746V13.9754H29.0689Z" fill="black"/>
<path d="M39.0031 11.5338V10.0112C37.1386 10.014 35.3107 9.48998 33.7288 8.49901C35.1291 10.0376 36.9731 11.0985 39.0031 11.5338ZM29.1781 1.74152C29.1307 1.46927 29.0942 1.19523 29.0689 0.920144V0H21.8987V28.5738C21.8872 31.9044 19.1936 34.6016 15.8715 34.6016C14.8961 34.6016 13.9753 34.3693 13.1598 33.9564C14.2612 35.4069 16.0002 36.3432 17.9577 36.3432C21.2793 36.3432 23.9735 33.6462 23.9851 30.3152V1.74152H29.1781ZM17.701 17.0951V15.4742C17.1019 15.392 16.4979 15.3508 15.8931 15.3511C8.61553 15.3509 2.71619 21.2712 2.71619 28.5738C2.71619 33.1521 5.03473 37.187 8.55794 39.5604C6.23419 37.1766 4.80243 33.9138 4.80243 30.315C4.80243 23.1055 10.5518 17.2434 17.701 17.0951Z" fill="#00F2EA"/>
</svg>
