<svg width="44" height="44" viewBox="0 0 44 44" fill="none" xmlns="http://www.w3.org/2000/svg">
<path d="M-0.00500488 43.6169L3.05541 32.4365C1.16691 29.1638 0.174592 25.454 0.176407 21.6498C0.181849 9.75643 9.86015 0.078125 21.7517 0.078125C27.5224 0.0799391 32.9393 2.32763 37.0138 6.40576C41.0865 10.4839 43.3288 15.9045 43.3269 21.6697C43.3215 33.5649 33.6432 43.2432 21.7517 43.2432C18.1416 43.2414 14.5841 42.3361 11.433 40.6163L-0.00500488 43.6169ZM11.9627 36.7105C15.0032 38.5156 17.9057 39.5968 21.7444 39.5986C31.6277 39.5986 39.6788 31.5548 39.6842 21.6661C39.6878 11.7574 31.6749 3.7245 21.7589 3.72087C11.8684 3.72087 3.82278 11.7647 3.81915 21.6516C3.81733 25.688 5.00014 28.7103 6.98659 31.8723L5.17429 38.4902L11.9627 36.7105ZM32.62 26.7982C32.4858 26.5733 32.1266 26.439 31.586 26.1687C31.0472 25.8984 28.3968 24.5941 27.9015 24.4145C27.4081 24.2349 27.0489 24.1442 26.6879 24.6848C26.3287 25.2236 25.2946 26.439 24.9808 26.7982C24.667 27.1574 24.3513 27.2028 23.8125 26.9325C23.2737 26.6622 21.5358 26.0943 19.4768 24.2566C17.8749 22.8271 16.7919 21.062 16.478 20.5214C16.1642 19.9826 16.4454 19.6905 16.7139 19.422C16.957 19.1808 17.2527 18.7925 17.523 18.4769C17.7969 18.1649 17.8858 17.9399 18.0672 17.5789C18.2468 17.2197 18.1579 16.904 18.0219 16.6337C17.8858 16.3652 16.8082 13.7112 16.3601 12.6318C15.9211 11.5814 15.4767 11.7229 15.1465 11.7066L14.1124 11.6885C13.7532 11.6885 13.1691 11.8227 12.6757 12.3633C12.1822 12.9039 10.789 14.2065 10.789 16.8605C10.789 19.5146 12.721 22.0779 12.9895 22.4371C13.2598 22.7963 16.7901 28.2423 22.1979 30.577C23.4842 31.1321 24.4892 31.4641 25.2711 31.7127C26.5627 32.1227 27.7383 32.0646 28.6671 31.9267C29.7029 31.7725 31.8563 30.6224 32.3062 29.3634C32.7561 28.1026 32.7561 27.0232 32.62 26.7982Z" fill="#25D366"/>
</svg>
