<svg width="44" height="45" viewBox="0 0 44 45" fill="none" xmlns="http://www.w3.org/2000/svg">
<g clip-path="url(#clip0_925_2889)">
<path d="M42.6716 11.7619C42.4255 10.8357 41.9403 9.99029 41.2648 9.31043C40.5893 8.63056 39.7471 8.14004 38.8224 7.88796C35.4185 6.97266 21.8126 6.97266 21.8126 6.97266C21.8126 6.97266 8.20673 6.97266 4.80279 7.88796C3.87813 8.14004 3.03588 8.63056 2.36036 9.31043C1.68483 9.99029 1.19972 10.8357 0.953569 11.7619C0.043213 15.1807 0.0432129 22.3102 0.0432129 22.3102C0.0432129 22.3102 0.043213 29.4396 0.953569 32.8584C1.19972 33.7847 1.68483 34.63 2.36036 35.3099C3.03588 35.9898 3.87813 36.4803 4.80279 36.7324C8.20673 37.6477 21.8126 37.6477 21.8126 37.6477C21.8126 37.6477 35.4185 37.6477 38.8224 36.7324C39.7471 36.4803 40.5893 35.9898 41.2648 35.3099C41.9403 34.63 42.4255 33.7847 42.6716 32.8584C43.582 29.4396 43.582 22.3102 43.582 22.3102C43.582 22.3102 43.582 15.1807 42.6716 11.7619Z" fill="#FF0302"/>
<path d="M17.3597 28.7838V15.8359L28.7392 22.3099L17.3597 28.7838Z" fill="#FEFEFE"/>
</g>
<defs>
<clipPath id="clip0_925_2889">
<rect width="43.5388" height="43.5388" fill="white" transform="translate(0 0.539062)"/>
</clipPath>
</defs>
</svg>
